<mxfile host="Electron" modified="2023-11-13T12:57:30.091Z" agent="Mozilla/5.0 (Windows NT 10.0; Win64; x64) AppleWebKit/537.36 (KHTML, like Gecko) draw.io/22.0.3 Chrome/114.0.5735.289 Electron/25.8.4 Safari/537.36" etag="XYu8wH7gxA5EJjLZQPWR" version="22.0.3" type="device">
  <diagram name="Page-1" id="IWUsxxGd_OhqJAU_pVA5">
    <mxGraphModel dx="775" dy="478" grid="1" gridSize="10" guides="1" tooltips="1" connect="1" arrows="1" fold="1" page="1" pageScale="1" pageWidth="850" pageHeight="1100" math="1" shadow="0">
      <root>
        <mxCell id="0" />
        <mxCell id="1" parent="0" />
        <mxCell id="rlUOeSArvqXjH74ffiMW-3" value="$$x_{1}$$" style="text;html=1;strokeColor=none;fillColor=none;align=center;verticalAlign=middle;whiteSpace=wrap;rounded=0;" vertex="1" parent="1">
          <mxGeometry x="330" y="190" width="30" height="30" as="geometry" />
        </mxCell>
        <mxCell id="rlUOeSArvqXjH74ffiMW-5" value="" style="ellipse;whiteSpace=wrap;html=1;aspect=fixed;fillColor=#97D077;dashed=1;fillStyle=auto;gradientColor=none;" vertex="1" parent="1">
          <mxGeometry x="320" y="280" width="80" height="80" as="geometry" />
        </mxCell>
        <mxCell id="rlUOeSArvqXjH74ffiMW-4" value="$$x_{2}$$" style="text;html=1;strokeColor=none;fillColor=none;align=center;verticalAlign=middle;whiteSpace=wrap;rounded=0;" vertex="1" parent="1">
          <mxGeometry x="460" y="320" width="30" height="30" as="geometry" />
        </mxCell>
        <mxCell id="rlUOeSArvqXjH74ffiMW-1" value="" style="endArrow=classic;html=1;rounded=0;" edge="1" parent="1">
          <mxGeometry width="50" height="50" relative="1" as="geometry">
            <mxPoint x="240" y="320" as="sourcePoint" />
            <mxPoint x="480" y="320" as="targetPoint" />
          </mxGeometry>
        </mxCell>
        <mxCell id="rlUOeSArvqXjH74ffiMW-2" value="" style="endArrow=classic;html=1;rounded=0;" edge="1" parent="1">
          <mxGeometry width="50" height="50" relative="1" as="geometry">
            <mxPoint x="360" y="440" as="sourcePoint" />
            <mxPoint x="360" y="200" as="targetPoint" />
          </mxGeometry>
        </mxCell>
        <mxCell id="rlUOeSArvqXjH74ffiMW-10" value="" style="endArrow=oval;html=1;rounded=0;startArrow=oval;startFill=0;endFill=0;" edge="1" parent="1">
          <mxGeometry width="50" height="50" relative="1" as="geometry">
            <mxPoint x="440" y="320" as="sourcePoint" />
            <mxPoint x="440" y="280" as="targetPoint" />
          </mxGeometry>
        </mxCell>
        <mxCell id="rlUOeSArvqXjH74ffiMW-11" value="" style="shape=ellipse;fillColor=#0065FF;strokeColor=none;html=1;sketch=0;" vertex="1" parent="1">
          <mxGeometry x="435" y="235" width="10" height="10" as="geometry" />
        </mxCell>
        <mxCell id="rlUOeSArvqXjH74ffiMW-12" value="$$A_{1}$$" style="text;html=1;strokeColor=none;fillColor=none;align=center;verticalAlign=middle;whiteSpace=wrap;rounded=0;" vertex="1" parent="1">
          <mxGeometry x="300" y="340" width="30" height="30" as="geometry" />
        </mxCell>
        <mxCell id="rlUOeSArvqXjH74ffiMW-13" value="$$A_{2}$$" style="text;html=1;strokeColor=none;fillColor=none;align=center;verticalAlign=middle;whiteSpace=wrap;rounded=0;" vertex="1" parent="1">
          <mxGeometry x="445" y="270" width="30" height="30" as="geometry" />
        </mxCell>
        <mxCell id="rlUOeSArvqXjH74ffiMW-14" value="$$A_{3}$$" style="text;html=1;strokeColor=none;fillColor=none;align=center;verticalAlign=middle;whiteSpace=wrap;rounded=0;" vertex="1" parent="1">
          <mxGeometry x="445" y="225" width="30" height="30" as="geometry" />
        </mxCell>
        <mxCell id="rlUOeSArvqXjH74ffiMW-15" value="$$2$$" style="text;html=1;strokeColor=none;fillColor=none;align=center;verticalAlign=middle;whiteSpace=wrap;rounded=0;" vertex="1" parent="1">
          <mxGeometry x="425" y="320" width="30" height="30" as="geometry" />
        </mxCell>
        <mxCell id="rlUOeSArvqXjH74ffiMW-16" value="$$1$$" style="text;html=1;strokeColor=none;fillColor=none;align=center;verticalAlign=middle;whiteSpace=wrap;rounded=0;" vertex="1" parent="1">
          <mxGeometry x="330" y="255" width="30" height="40" as="geometry" />
        </mxCell>
        <mxCell id="rlUOeSArvqXjH74ffiMW-17" value="$$2$$" style="text;html=1;strokeColor=none;fillColor=none;align=center;verticalAlign=middle;whiteSpace=wrap;rounded=0;" vertex="1" parent="1">
          <mxGeometry x="330" y="220" width="30" height="40" as="geometry" />
        </mxCell>
      </root>
    </mxGraphModel>
  </diagram>
</mxfile>
